<svg xmlns="http://www.w3.org/2000/svg" xmlns:xlink="http://www.w3.org/1999/xlink" width="44" height="44" viewBox="0 0 44 44"><defs><style>.a,.f{fill:none;}.b{clip-path:url(#a);}.c{fill:#b22234;}.d{fill:#fff;}.e{fill:#3c3b6e;}.f{stroke:#fff;stroke-width:2px;}</style><clipPath id="a"><circle class="a" cx="21" cy="21" r="21" transform="translate(0 0)"/></clipPath></defs><g transform="translate(-166 -59)"><g transform="translate(-164.329 14.211)"><g class="b" transform="translate(331.329 45.789)"><g transform="translate(-10.984 0)"><rect class="c" width="79.8" height="42"/><path class="d" d="M275.55,121.206h-79.8v-3.231h79.8Zm0-6.462h-79.8v-3.231h79.8Zm0-6.462h-79.8v-3.231h79.8Zm0-6.462h-79.8V98.591h79.8Zm0-6.462h-79.8V92.13h79.8Zm0-6.462h-79.8V85.668h79.8Z" transform="translate(-195.75 -82.437)"/><rect class="e" width="31.92" height="22.615"/><g transform="translate(1.431 0.969)"><path class="d" d="M214.642,57.753l.76,2.338-1.989-1.445h2.458l-1.989,1.445Z" transform="translate(-213.413 -57.753)"/><g transform="translate(0 4.523)"><path class="d" d="M214.642,113.583l.76,2.338-1.989-1.445h2.458l-1.989,1.445Z" transform="translate(-213.413 -113.583)"/></g><g transform="translate(0 9.046)"><path class="d" d="M214.642,169.413l.76,2.338-1.989-1.445h2.458l-1.989,1.445Z" transform="translate(-213.413 -169.413)"/></g><g transform="translate(0 13.569)"><path class="d" d="M214.642,225.243l.76,2.338-1.989-1.445h2.458l-1.989,1.445Z" transform="translate(-213.413 -225.243)"/></g><g transform="translate(0 18.092)"><path class="d" d="M214.642,281.073l.76,2.338-1.989-1.445h2.458l-1.989,1.445Z" transform="translate(-213.413 -281.073)"/></g><g transform="translate(2.66 2.262)"><path class="d" d="M247.475,85.668l.76,2.338-1.989-1.445H248.7l-1.989,1.445Z" transform="translate(-246.246 -85.668)"/><g transform="translate(0 4.523)"><path class="d" d="M247.475,141.5l.76,2.338-1.989-1.445H248.7l-1.989,1.445Z" transform="translate(-246.246 -141.498)"/></g><g transform="translate(0 9.046)"><path class="d" d="M247.475,197.328l.76,2.338-1.989-1.445H248.7l-1.989,1.445Z" transform="translate(-246.246 -197.328)"/></g><g transform="translate(0 13.569)"><path class="d" d="M247.475,253.158l.76,2.338-1.989-1.445H248.7l-1.989,1.445Z" transform="translate(-246.246 -253.158)"/></g></g><g transform="translate(5.32)"><path class="d" d="M280.308,57.753l.76,2.338-1.989-1.445h2.458l-1.989,1.445Z" transform="translate(-279.079 -57.753)"/><g transform="translate(0 4.523)"><path class="d" d="M280.308,113.583l.76,2.338-1.989-1.445h2.458l-1.989,1.445Z" transform="translate(-279.079 -113.583)"/></g><g transform="translate(0 9.046)"><path class="d" d="M280.308,169.413l.76,2.338-1.989-1.445h2.458l-1.989,1.445Z" transform="translate(-279.079 -169.413)"/></g><g transform="translate(0 13.569)"><path class="d" d="M280.308,225.243l.76,2.338-1.989-1.445h2.458l-1.989,1.445Z" transform="translate(-279.079 -225.243)"/></g><g transform="translate(0 18.092)"><path class="d" d="M280.308,281.073l.76,2.338-1.989-1.445h2.458l-1.989,1.445Z" transform="translate(-279.079 -281.073)"/></g><g transform="translate(2.66 2.262)"><path class="d" d="M313.142,85.668l.76,2.338-1.989-1.445h2.458l-1.989,1.445Z" transform="translate(-311.913 -85.668)"/><g transform="translate(0 4.523)"><path class="d" d="M313.142,141.5l.76,2.338-1.989-1.445h2.458l-1.989,1.445Z" transform="translate(-311.913 -141.498)"/></g><g transform="translate(0 9.046)"><path class="d" d="M313.142,197.328l.76,2.338-1.989-1.445h2.458l-1.989,1.445Z" transform="translate(-311.913 -197.328)"/></g><g transform="translate(0 13.569)"><path class="d" d="M313.142,253.158l.76,2.338-1.989-1.445h2.458l-1.989,1.445Z" transform="translate(-311.913 -253.158)"/></g></g></g><g transform="translate(10.64)"><path class="d" d="M345.975,57.753l.76,2.338-1.989-1.445H347.2l-1.989,1.445Z" transform="translate(-344.746 -57.753)"/><g transform="translate(0 4.523)"><path class="d" d="M345.975,113.583l.76,2.338-1.989-1.445H347.2l-1.989,1.445Z" transform="translate(-344.746 -113.583)"/></g><g transform="translate(0 9.046)"><path class="d" d="M345.975,169.413l.76,2.338-1.989-1.445H347.2l-1.989,1.445Z" transform="translate(-344.746 -169.413)"/></g><g transform="translate(0 13.569)"><path class="d" d="M345.975,225.243l.76,2.338-1.989-1.445H347.2l-1.989,1.445Z" transform="translate(-344.746 -225.243)"/></g><g transform="translate(0 18.092)"><path class="d" d="M345.975,281.073l.76,2.338-1.989-1.445H347.2l-1.989,1.445Z" transform="translate(-344.746 -281.073)"/></g><g transform="translate(2.66 2.262)"><path class="d" d="M378.808,85.668l.76,2.338-1.989-1.445h2.458l-1.989,1.445Z" transform="translate(-377.579 -85.668)"/><g transform="translate(0 4.523)"><path class="d" d="M378.808,141.5l.76,2.338-1.989-1.445h2.458l-1.989,1.445Z" transform="translate(-377.579 -141.498)"/></g><g transform="translate(0 9.046)"><path class="d" d="M378.808,197.328l.76,2.338-1.989-1.445h2.458l-1.989,1.445Z" transform="translate(-377.579 -197.328)"/></g><g transform="translate(0 13.569)"><path class="d" d="M378.808,253.158l.76,2.338-1.989-1.445h2.458l-1.989,1.445Z" transform="translate(-377.579 -253.158)"/></g></g><g transform="translate(5.32)"><path class="d" d="M411.642,57.753l.76,2.338-1.989-1.445h2.458l-1.989,1.445Z" transform="translate(-410.413 -57.753)"/><g transform="translate(0 4.523)"><path class="d" d="M411.642,113.583l.76,2.338-1.989-1.445h2.458l-1.989,1.445Z" transform="translate(-410.413 -113.583)"/></g><g transform="translate(0 9.046)"><path class="d" d="M411.642,169.413l.76,2.338-1.989-1.445h2.458l-1.989,1.445Z" transform="translate(-410.413 -169.413)"/></g><g transform="translate(0 13.569)"><path class="d" d="M411.642,225.243l.76,2.338-1.989-1.445h2.458l-1.989,1.445Z" transform="translate(-410.413 -225.243)"/></g><g transform="translate(0 18.092)"><path class="d" d="M411.642,281.073l.76,2.338-1.989-1.445h2.458l-1.989,1.445Z" transform="translate(-410.413 -281.073)"/></g><g transform="translate(2.66 2.262)"><path class="d" d="M444.475,85.668l.76,2.338-1.989-1.445H445.7l-1.989,1.445Z" transform="translate(-443.246 -85.668)"/><g transform="translate(0 4.523)"><path class="d" d="M444.475,141.5l.76,2.338-1.989-1.445H445.7l-1.989,1.445Z" transform="translate(-443.246 -141.498)"/></g><g transform="translate(0 9.046)"><path class="d" d="M444.475,197.328l.76,2.338-1.989-1.445H445.7l-1.989,1.445Z" transform="translate(-443.246 -197.328)"/></g><g transform="translate(0 13.569)"><path class="d" d="M444.475,253.158l.76,2.338-1.989-1.445H445.7l-1.989,1.445Z" transform="translate(-443.246 -253.158)"/></g></g></g></g><g transform="translate(21.28)"><path class="d" d="M477.308,57.753l.76,2.338-1.989-1.445h2.458l-1.989,1.445Z" transform="translate(-476.079 -57.753)"/><g transform="translate(0 4.523)"><path class="d" d="M477.308,113.583l.76,2.338-1.989-1.445h2.458l-1.989,1.445Z" transform="translate(-476.079 -113.583)"/></g><g transform="translate(0 9.046)"><path class="d" d="M477.308,169.413l.76,2.338-1.989-1.445h2.458l-1.989,1.445Z" transform="translate(-476.079 -169.413)"/></g><g transform="translate(0 13.569)"><path class="d" d="M477.308,225.243l.76,2.338-1.989-1.445h2.458l-1.989,1.445Z" transform="translate(-476.079 -225.243)"/></g><g transform="translate(0 18.092)"><path class="d" d="M477.308,281.073l.76,2.338-1.989-1.445h2.458l-1.989,1.445Z" transform="translate(-476.079 -281.073)"/></g><g transform="translate(2.66 2.262)"><path class="d" d="M510.142,85.668l.76,2.338-1.989-1.445h2.458l-1.989,1.445Z" transform="translate(-508.913 -85.668)"/><g transform="translate(0 4.523)"><path class="d" d="M510.142,141.5l.76,2.338-1.989-1.445h2.458l-1.989,1.445Z" transform="translate(-508.913 -141.498)"/></g><g transform="translate(0 9.046)"><path class="d" d="M510.142,197.328l.76,2.338-1.989-1.445h2.458l-1.989,1.445Z" transform="translate(-508.913 -197.328)"/></g><g transform="translate(0 13.569)"><path class="d" d="M510.142,253.158l.76,2.338-1.989-1.445h2.458l-1.989,1.445Z" transform="translate(-508.913 -253.158)"/></g></g></g><g transform="translate(26.6)"><path class="d" d="M542.975,57.753l.76,2.338-1.989-1.445H544.2l-1.989,1.445Z" transform="translate(-541.746 -57.753)"/><g transform="translate(0 4.523)"><path class="d" d="M542.975,113.583l.76,2.338-1.989-1.445H544.2l-1.989,1.445Z" transform="translate(-541.746 -113.583)"/></g><g transform="translate(0 9.046)"><path class="d" d="M542.975,169.413l.76,2.338-1.989-1.445H544.2l-1.989,1.445Z" transform="translate(-541.746 -169.413)"/></g><g transform="translate(0 13.569)"><path class="d" d="M542.975,225.243l.76,2.338-1.989-1.445H544.2l-1.989,1.445Z" transform="translate(-541.746 -225.243)"/></g><g transform="translate(0 18.092)"><path class="d" d="M542.975,281.073l.76,2.338-1.989-1.445H544.2l-1.989,1.445Z" transform="translate(-541.746 -281.073)"/></g></g></g></g></g></g><circle class="f" cx="21" cy="21" r="21" transform="translate(167 60)"/></g></svg>